<?xml version="1.0" encoding="UTF-8" standalone="no"?><svg xmlns="http://www.w3.org/2000/svg" xmlns:xlink="http://www.w3.org/1999/xlink" contentScriptType="application/ecmascript" contentStyleType="text/css" height="416px" preserveAspectRatio="none" style="width:347px;height:416px;" version="1.1" viewBox="0 0 347 416" width="347px" zoomAndPan="magnify"><defs><filter height="300%" id="f3u59uxzyaxfw" width="300%" x="-1" y="-1"><feGaussianBlur result="blurOut" stdDeviation="2.0"/><feColorMatrix in="blurOut" result="blurOut2" type="matrix" values="0 0 0 0 0 0 0 0 0 0 0 0 0 0 0 0 0 0 .4 0"/><feOffset dx="4.0" dy="4.0" in="blurOut2" result="blurOut3"/><feBlend in="SourceGraphic" in2="blurOut3" mode="normal"/></filter></defs><g><text fill="#000000" font-family="sans-serif" font-size="18" lengthAdjust="spacing" textLength="162" x="91.5" y="26.708">Router go forward</text><rect fill="#FEFECE" filter="url(#f3u59uxzyaxfw)" height="33.9688" rx="12.5" ry="12.5" style="stroke:#A80036;stroke-width:1.5;" width="117" x="135.75" y="31.9531"/><text fill="#000000" font-family="sans-serif" font-size="12" lengthAdjust="spacing" textLength="97" x="145.75" y="53.0918">Msg::GoForward</text><rect fill="#FEFECE" filter="url(#f3u59uxzyaxfw)" height="33.9688" rx="12.5" ry="12.5" style="stroke:#A80036;stroke-width:1.5;" width="79" x="154.75" y="85.9219"/><text fill="#000000" font-family="sans-serif" font-size="12" lengthAdjust="spacing" textLength="59" x="164.75" y="107.0605">fn update</text><rect fill="#FEFECE" filter="url(#f3u59uxzyaxfw)" height="33.9688" rx="12.5" ry="12.5" style="stroke:#A80036;stroke-width:1.5;" width="169" x="109.75" y="139.8906"/><text fill="#000000" font-family="sans-serif" font-size="12" lengthAdjust="spacing" textLength="149" x="119.75" y="161.0293">request_moving_forward</text><polygon fill="#FEFECE" filter="url(#f3u59uxzyaxfw)" points="163.75,193.8594,224.75,193.8594,236.75,205.8594,224.75,217.8594,163.75,217.8594,151.75,205.8594,163.75,193.8594" style="stroke:#A80036;stroke-width:1.5;"/><text fill="#000000" font-family="sans-serif" font-size="11" lengthAdjust="spacing" textLength="61" x="163.75" y="209.6675">next_route</text><text fill="#000000" font-family="sans-serif" font-size="11" lengthAdjust="spacing" textLength="27" x="124.75" y="203.2651">exist</text><rect fill="#FEFECE" filter="url(#f3u59uxzyaxfw)" height="33.9688" rx="12.5" ry="12.5" style="stroke:#A80036;stroke-width:1.5;" width="197" x="11" y="227.8594"/><text fill="#000000" font-family="sans-serif" font-size="12" lengthAdjust="spacing" textLength="177" x="21" y="248.998">router.move = move_forward</text><rect fill="#FEFECE" filter="url(#f3u59uxzyaxfw)" height="33.9688" rx="12.5" ry="12.5" style="stroke:#A80036;stroke-width:1.5;" width="175" x="22" y="281.8281"/><text fill="#000000" font-family="sans-serif" font-size="12" lengthAdjust="spacing" textLength="155" x="32" y="302.9668">notify subs::UrlRequested</text><rect fill="#FEFECE" filter="url(#f3u59uxzyaxfw)" height="33.9688" rx="12.5" ry="12.5" style="stroke:#A80036;stroke-width:1.5;" width="102" x="228" y="227.8594"/><text fill="#000000" font-family="sans-serif" font-size="12" lengthAdjust="spacing" textLength="82" x="238" y="248.998">nothing to do</text><polygon fill="#FEFECE" filter="url(#f3u59uxzyaxfw)" points="194.25,321.7969,206.25,333.7969,194.25,345.7969,182.25,333.7969,194.25,321.7969" style="stroke:#A80036;stroke-width:1.5;"/><rect fill="#FEFECE" filter="url(#f3u59uxzyaxfw)" height="33.9688" rx="12.5" ry="12.5" style="stroke:#A80036;stroke-width:1.5;" width="114" x="137.25" y="365.7969"/><text fill="#000000" font-family="sans-serif" font-size="12" lengthAdjust="spacing" textLength="94" x="147.25" y="386.9355">router_listening</text><line style="stroke:#A80036;stroke-width:1.5;" x1="194.25" x2="194.25" y1="65.9219" y2="85.9219"/><polygon fill="#A80036" points="190.25,75.9219,194.25,85.9219,198.25,75.9219,194.25,79.9219" style="stroke:#A80036;stroke-width:1.0;"/><line style="stroke:#A80036;stroke-width:1.5;" x1="194.25" x2="194.25" y1="119.8906" y2="139.8906"/><polygon fill="#A80036" points="190.25,129.8906,194.25,139.8906,198.25,129.8906,194.25,133.8906" style="stroke:#A80036;stroke-width:1.0;"/><line style="stroke:#A80036;stroke-width:1.5;" x1="109.5" x2="109.5" y1="261.8281" y2="281.8281"/><polygon fill="#A80036" points="105.5,271.8281,109.5,281.8281,113.5,271.8281,109.5,275.8281" style="stroke:#A80036;stroke-width:1.0;"/><line style="stroke:#A80036;stroke-width:1.5;" x1="151.75" x2="109.5" y1="205.8594" y2="205.8594"/><line style="stroke:#A80036;stroke-width:1.5;" x1="109.5" x2="109.5" y1="205.8594" y2="227.8594"/><polygon fill="#A80036" points="105.5,217.8594,109.5,227.8594,113.5,217.8594,109.5,221.8594" style="stroke:#A80036;stroke-width:1.0;"/><line style="stroke:#A80036;stroke-width:1.5;" x1="236.75" x2="279" y1="205.8594" y2="205.8594"/><line style="stroke:#A80036;stroke-width:1.5;" x1="279" x2="279" y1="205.8594" y2="227.8594"/><polygon fill="#A80036" points="275,217.8594,279,227.8594,283,217.8594,279,221.8594" style="stroke:#A80036;stroke-width:1.0;"/><line style="stroke:#A80036;stroke-width:1.5;" x1="109.5" x2="109.5" y1="315.7969" y2="333.7969"/><line style="stroke:#A80036;stroke-width:1.5;" x1="109.5" x2="182.25" y1="333.7969" y2="333.7969"/><polygon fill="#A80036" points="172.25,329.7969,182.25,333.7969,172.25,337.7969,176.25,333.7969" style="stroke:#A80036;stroke-width:1.0;"/><line style="stroke:#A80036;stroke-width:1.5;" x1="279" x2="279" y1="261.8281" y2="333.7969"/><line style="stroke:#A80036;stroke-width:1.5;" x1="279" x2="206.25" y1="333.7969" y2="333.7969"/><polygon fill="#A80036" points="216.25,329.7969,206.25,333.7969,216.25,337.7969,212.25,333.7969" style="stroke:#A80036;stroke-width:1.0;"/><line style="stroke:#A80036;stroke-width:1.5;" x1="194.25" x2="194.25" y1="173.8594" y2="193.8594"/><polygon fill="#A80036" points="190.25,183.8594,194.25,193.8594,198.25,183.8594,194.25,187.8594" style="stroke:#A80036;stroke-width:1.0;"/><line style="stroke:#A80036;stroke-width:1.5;" x1="194.25" x2="194.25" y1="345.7969" y2="365.7969"/><polygon fill="#A80036" points="190.25,355.7969,194.25,365.7969,198.25,355.7969,194.25,359.7969" style="stroke:#A80036;stroke-width:1.0;"/><!--MD5=[0fcb6117f127a9409cdfce67982be77c]
@startuml

title Router go forward

:Msg::GoForward;

:fn update;

:request_moving_forward;

if(next_route) then (exist)
    :router.move = move_forward;
    :notify subs::UrlRequested;
else
:nothing to do;
endif
:router_listening;
@enduml

PlantUML version 1.2021.00(Sun Jan 10 11:25:05 CET 2021)
(GPL source distribution)
Java Runtime: OpenJDK Runtime Environment
JVM: OpenJDK 64-Bit Server VM
Default Encoding: UTF-8
Language: en
Country: US
--></g></svg>