<?xml version="1.0" encoding="UTF-8" standalone="no"?><svg xmlns="http://www.w3.org/2000/svg" xmlns:xlink="http://www.w3.org/1999/xlink" contentScriptType="application/ecmascript" contentStyleType="text/css" height="416px" preserveAspectRatio="none" style="width:330px;height:416px;" version="1.1" viewBox="0 0 330 416" width="330px" zoomAndPan="magnify"><defs><filter height="300%" id="ff0gphck8p4e9" width="300%" x="-1" y="-1"><feGaussianBlur result="blurOut" stdDeviation="2.0"/><feColorMatrix in="blurOut" result="blurOut2" type="matrix" values="0 0 0 0 0 0 0 0 0 0 0 0 0 0 0 0 0 0 .4 0"/><feOffset dx="4.0" dy="4.0" in="blurOut2" result="blurOut3"/><feBlend in="SourceGraphic" in2="blurOut3" mode="normal"/></filter></defs><g><text fill="#000000" font-family="sans-serif" font-size="18" lengthAdjust="spacing" textLength="136" x="96" y="26.708">Router go back</text><rect fill="#FEFECE" filter="url(#ff0gphck8p4e9)" height="33.9688" rx="12.5" ry="12.5" style="stroke:#A80036;stroke-width:1.5;" width="97" x="133" y="31.9531"/><text fill="#000000" font-family="sans-serif" font-size="12" lengthAdjust="spacing" textLength="77" x="143" y="53.0918">Msg::GoBack</text><rect fill="#FEFECE" filter="url(#ff0gphck8p4e9)" height="33.9688" rx="12.5" ry="12.5" style="stroke:#A80036;stroke-width:1.5;" width="79" x="142" y="85.9219"/><text fill="#000000" font-family="sans-serif" font-size="12" lengthAdjust="spacing" textLength="59" x="152" y="107.0605">fn update</text><rect fill="#FEFECE" filter="url(#ff0gphck8p4e9)" height="33.9688" rx="12.5" ry="12.5" style="stroke:#A80036;stroke-width:1.5;" width="152" x="105.5" y="139.8906"/><text fill="#000000" font-family="sans-serif" font-size="12" lengthAdjust="spacing" textLength="132" x="115.5" y="161.0293">request_moving_back</text><polygon fill="#FEFECE" filter="url(#ff0gphck8p4e9)" points="139,193.8594,224,193.8594,236,205.8594,224,217.8594,139,217.8594,127,205.8594,139,193.8594" style="stroke:#A80036;stroke-width:1.5;"/><text fill="#000000" font-family="sans-serif" font-size="11" lengthAdjust="spacing" textLength="85" x="139" y="209.6675">previous_route</text><text fill="#000000" font-family="sans-serif" font-size="11" lengthAdjust="spacing" textLength="33" x="94" y="203.2651">exists</text><rect fill="#FEFECE" filter="url(#ff0gphck8p4e9)" height="33.9688" rx="12.5" ry="12.5" style="stroke:#A80036;stroke-width:1.5;" width="180" x="11" y="227.8594"/><text fill="#000000" font-family="sans-serif" font-size="12" lengthAdjust="spacing" textLength="160" x="21" y="248.998">router.move = move_back</text><rect fill="#FEFECE" filter="url(#ff0gphck8p4e9)" height="33.9688" rx="12.5" ry="12.5" style="stroke:#A80036;stroke-width:1.5;" width="175" x="13.5" y="281.8281"/><text fill="#000000" font-family="sans-serif" font-size="12" lengthAdjust="spacing" textLength="155" x="23.5" y="302.9668">notify subs::UrlRequested</text><rect fill="#FEFECE" filter="url(#ff0gphck8p4e9)" height="33.9688" rx="12.5" ry="12.5" style="stroke:#A80036;stroke-width:1.5;" width="102" x="211" y="227.8594"/><text fill="#000000" font-family="sans-serif" font-size="12" lengthAdjust="spacing" textLength="82" x="221" y="248.998">nothing to do</text><polygon fill="#FEFECE" filter="url(#ff0gphck8p4e9)" points="181.5,321.7969,193.5,333.7969,181.5,345.7969,169.5,333.7969,181.5,321.7969" style="stroke:#A80036;stroke-width:1.5;"/><rect fill="#FEFECE" filter="url(#ff0gphck8p4e9)" height="33.9688" rx="12.5" ry="12.5" style="stroke:#A80036;stroke-width:1.5;" width="114" x="124.5" y="365.7969"/><text fill="#000000" font-family="sans-serif" font-size="12" lengthAdjust="spacing" textLength="94" x="134.5" y="386.9355">router_listening</text><line style="stroke:#A80036;stroke-width:1.5;" x1="181.5" x2="181.5" y1="65.9219" y2="85.9219"/><polygon fill="#A80036" points="177.5,75.9219,181.5,85.9219,185.5,75.9219,181.5,79.9219" style="stroke:#A80036;stroke-width:1.0;"/><line style="stroke:#A80036;stroke-width:1.5;" x1="181.5" x2="181.5" y1="119.8906" y2="139.8906"/><polygon fill="#A80036" points="177.5,129.8906,181.5,139.8906,185.5,129.8906,181.5,133.8906" style="stroke:#A80036;stroke-width:1.0;"/><line style="stroke:#A80036;stroke-width:1.5;" x1="101" x2="101" y1="261.8281" y2="281.8281"/><polygon fill="#A80036" points="97,271.8281,101,281.8281,105,271.8281,101,275.8281" style="stroke:#A80036;stroke-width:1.0;"/><line style="stroke:#A80036;stroke-width:1.5;" x1="127" x2="101" y1="205.8594" y2="205.8594"/><line style="stroke:#A80036;stroke-width:1.5;" x1="101" x2="101" y1="205.8594" y2="227.8594"/><polygon fill="#A80036" points="97,217.8594,101,227.8594,105,217.8594,101,221.8594" style="stroke:#A80036;stroke-width:1.0;"/><line style="stroke:#A80036;stroke-width:1.5;" x1="236" x2="262" y1="205.8594" y2="205.8594"/><line style="stroke:#A80036;stroke-width:1.5;" x1="262" x2="262" y1="205.8594" y2="227.8594"/><polygon fill="#A80036" points="258,217.8594,262,227.8594,266,217.8594,262,221.8594" style="stroke:#A80036;stroke-width:1.0;"/><line style="stroke:#A80036;stroke-width:1.5;" x1="101" x2="101" y1="315.7969" y2="333.7969"/><line style="stroke:#A80036;stroke-width:1.5;" x1="101" x2="169.5" y1="333.7969" y2="333.7969"/><polygon fill="#A80036" points="159.5,329.7969,169.5,333.7969,159.5,337.7969,163.5,333.7969" style="stroke:#A80036;stroke-width:1.0;"/><line style="stroke:#A80036;stroke-width:1.5;" x1="262" x2="262" y1="261.8281" y2="333.7969"/><line style="stroke:#A80036;stroke-width:1.5;" x1="262" x2="193.5" y1="333.7969" y2="333.7969"/><polygon fill="#A80036" points="203.5,329.7969,193.5,333.7969,203.5,337.7969,199.5,333.7969" style="stroke:#A80036;stroke-width:1.0;"/><line style="stroke:#A80036;stroke-width:1.5;" x1="181.5" x2="181.5" y1="173.8594" y2="193.8594"/><polygon fill="#A80036" points="177.5,183.8594,181.5,193.8594,185.5,183.8594,181.5,187.8594" style="stroke:#A80036;stroke-width:1.0;"/><line style="stroke:#A80036;stroke-width:1.5;" x1="181.5" x2="181.5" y1="345.7969" y2="365.7969"/><polygon fill="#A80036" points="177.5,355.7969,181.5,365.7969,185.5,355.7969,181.5,359.7969" style="stroke:#A80036;stroke-width:1.0;"/><!--MD5=[038faf56b245cfe7d6e818d9061593de]
@startuml

title Router go back

:Msg::GoBack;

:fn update;

:request_moving_back;

if(previous_route) then (exists)
    :router.move = move_back;
    :notify subs::UrlRequested;
else
:nothing to do;
endif
:router_listening;
@enduml

PlantUML version 1.2021.00(Sun Jan 10 11:25:05 CET 2021)
(GPL source distribution)
Java Runtime: OpenJDK Runtime Environment
JVM: OpenJDK 64-Bit Server VM
Default Encoding: UTF-8
Language: en
Country: US
--></g></svg>