<?xml version="1.0" encoding="UTF-8" standalone="no"?><svg xmlns="http://www.w3.org/2000/svg" xmlns:xlink="http://www.w3.org/1999/xlink" contentScriptType="application/ecmascript" contentStyleType="text/css" height="492px" preserveAspectRatio="none" style="width:229px;height:492px;" version="1.1" viewBox="0 0 229 492" width="229px" zoomAndPan="magnify"><defs><filter height="300%" id="fepg8al3r3aqq" width="300%" x="-1" y="-1"><feGaussianBlur result="blurOut" stdDeviation="2.0"/><feColorMatrix in="blurOut" result="blurOut2" type="matrix" values="0 0 0 0 0 0 0 0 0 0 0 0 0 0 0 0 0 0 .4 0"/><feOffset dx="4.0" dy="4.0" in="blurOut2" result="blurOut3"/><feBlend in="SourceGraphic" in2="blurOut3" mode="normal"/></filter></defs><g><text fill="#000000" font-family="sans-serif" font-size="18" lengthAdjust="spacingAndGlyphs" textLength="135" x="46" y="26.708">Router go back</text><rect fill="#FEFECE" filter="url(#fepg8al3r3aqq)" height="33.9688" rx="12.5" ry="12.5" style="stroke: #A80036; stroke-width: 1.5;" width="100" x="51.5" y="30.9531"/><text fill="#000000" font-family="sans-serif" font-size="12" lengthAdjust="spacingAndGlyphs" textLength="80" x="61.5" y="52.0918">Msg::GoBack</text><rect fill="#FEFECE" filter="url(#fepg8al3r3aqq)" height="33.9688" rx="12.5" ry="12.5" style="stroke: #A80036; stroke-width: 1.5;" width="81" x="61" y="84.9219"/><text fill="#000000" font-family="sans-serif" font-size="12" lengthAdjust="spacingAndGlyphs" textLength="61" x="71" y="106.0605">fn update</text><rect fill="#FEFECE" filter="url(#fepg8al3r3aqq)" height="33.9688" rx="12.5" ry="12.5" style="stroke: #A80036; stroke-width: 1.5;" width="155" x="24" y="138.8906"/><text fill="#000000" font-family="sans-serif" font-size="12" lengthAdjust="spacingAndGlyphs" textLength="135" x="34" y="160.0293">request_moving_back</text><rect fill="#FEFECE" filter="url(#fepg8al3r3aqq)" height="33.9688" rx="12.5" ry="12.5" style="stroke: #A80036; stroke-width: 1.5;" width="183" x="10" y="241.2617"/><text fill="#000000" font-family="sans-serif" font-size="12" lengthAdjust="spacingAndGlyphs" textLength="163" x="20" y="262.4004">router.move = move_back</text><rect fill="#FEFECE" filter="url(#fepg8al3r3aqq)" height="33.9688" rx="12.5" ry="12.5" style="stroke: #A80036; stroke-width: 1.5;" width="181" x="11" y="295.2305"/><text fill="#000000" font-family="sans-serif" font-size="12" lengthAdjust="spacingAndGlyphs" textLength="161" x="21" y="316.3691">notify subs::UrlRequested</text><rect fill="#FEFECE" filter="url(#fepg8al3r3aqq)" height="33.9688" rx="12.5" ry="12.5" style="stroke: #A80036; stroke-width: 1.5;" width="126" x="38.5" y="349.1992"/><text fill="#000000" font-family="sans-serif" font-size="12" lengthAdjust="spacingAndGlyphs" textLength="106" x="48.5" y="370.3379">Msg::UrlChanged</text><polygon fill="#FEFECE" filter="url(#fepg8al3r3aqq)" points="59,192.8594,144,192.8594,156,204.8594,144,216.8594,59,216.8594,47,204.8594,59,192.8594" style="stroke: #A80036; stroke-width: 1.5;"/><text fill="#000000" font-family="sans-serif" font-size="11" lengthAdjust="spacingAndGlyphs" textLength="27" x="105.5" y="227.0698">exist</text><text fill="#000000" font-family="sans-serif" font-size="11" lengthAdjust="spacingAndGlyphs" textLength="85" x="59" y="208.6675">previous_route</text><polygon fill="#FEFECE" filter="url(#fepg8al3r3aqq)" points="101.5,403.168,113.5,415.168,101.5,427.168,89.5,415.168,101.5,403.168" style="stroke: #A80036; stroke-width: 1.5;"/><rect fill="#FEFECE" filter="url(#fepg8al3r3aqq)" height="33.9688" rx="12.5" ry="12.5" style="stroke: #A80036; stroke-width: 1.5;" width="118" x="42.5" y="447.168"/><text fill="#000000" font-family="sans-serif" font-size="12" lengthAdjust="spacingAndGlyphs" textLength="98" x="52.5" y="468.3066">router_listening</text><line style="stroke: #A80036; stroke-width: 1.5;" x1="101.5" x2="101.5" y1="64.9219" y2="84.9219"/><polygon fill="#A80036" points="97.5,74.9219,101.5,84.9219,105.5,74.9219,101.5,78.9219" style="stroke: #A80036; stroke-width: 1.0;"/><line style="stroke: #A80036; stroke-width: 1.5;" x1="101.5" x2="101.5" y1="118.8906" y2="138.8906"/><polygon fill="#A80036" points="97.5,128.8906,101.5,138.8906,105.5,128.8906,101.5,132.8906" style="stroke: #A80036; stroke-width: 1.0;"/><line style="stroke: #A80036; stroke-width: 1.5;" x1="101.5" x2="101.5" y1="275.2305" y2="295.2305"/><polygon fill="#A80036" points="97.5,285.2305,101.5,295.2305,105.5,285.2305,101.5,289.2305" style="stroke: #A80036; stroke-width: 1.0;"/><line style="stroke: #A80036; stroke-width: 1.5;" x1="101.5" x2="101.5" y1="329.1992" y2="349.1992"/><polygon fill="#A80036" points="97.5,339.1992,101.5,349.1992,105.5,339.1992,101.5,343.1992" style="stroke: #A80036; stroke-width: 1.0;"/><line style="stroke: #A80036; stroke-width: 1.5;" x1="101.5" x2="101.5" y1="216.8594" y2="241.2617"/><polygon fill="#A80036" points="97.5,231.2617,101.5,241.2617,105.5,231.2617,101.5,235.2617" style="stroke: #A80036; stroke-width: 1.0;"/><line style="stroke: #A80036; stroke-width: 1.5;" x1="156" x2="203" y1="204.8594" y2="204.8594"/><polygon fill="#A80036" points="199,302.2148,203,312.2148,207,302.2148,203,306.2148" style="stroke: #A80036; stroke-width: 1.5;"/><line style="stroke: #A80036; stroke-width: 1.5;" x1="203" x2="203" y1="204.8594" y2="415.168"/><line style="stroke: #A80036; stroke-width: 1.5;" x1="203" x2="113.5" y1="415.168" y2="415.168"/><polygon fill="#A80036" points="123.5,411.168,113.5,415.168,123.5,419.168,119.5,415.168" style="stroke: #A80036; stroke-width: 1.0;"/><line style="stroke: #A80036; stroke-width: 1.5;" x1="101.5" x2="101.5" y1="383.168" y2="403.168"/><polygon fill="#A80036" points="97.5,393.168,101.5,403.168,105.5,393.168,101.5,397.168" style="stroke: #A80036; stroke-width: 1.0;"/><line style="stroke: #A80036; stroke-width: 1.5;" x1="101.5" x2="101.5" y1="172.8594" y2="192.8594"/><polygon fill="#A80036" points="97.5,182.8594,101.5,192.8594,105.5,182.8594,101.5,186.8594" style="stroke: #A80036; stroke-width: 1.0;"/><line style="stroke: #A80036; stroke-width: 1.5;" x1="101.5" x2="101.5" y1="427.168" y2="447.168"/><polygon fill="#A80036" points="97.5,437.168,101.5,447.168,105.5,437.168,101.5,441.168" style="stroke: #A80036; stroke-width: 1.0;"/><!--MD5=[5de2651fa58ccaceeded59924a27ca07]
@startuml
title Router go back

:Msg::GoBack;

:fn update;

:request_moving_back;

if(previous_route) then (exist)
    :router.move = move_back;
    :notify subs::UrlRequested;
    :Msg::UrlChanged;
endif
:router_listening;
@enduml

PlantUML version 1.2019.12(Sun Nov 03 10:24:54 UTC 2019)
(GPL source distribution)
Java Runtime: OpenJDK Runtime Environment
JVM: OpenJDK 64-Bit Server VM
Java Version: 1.8.0_232-heroku-b09
Operating System: Linux
Default Encoding: UTF-8
Language: en
Country: US
--></g></svg>