<?xml version="1.0" encoding="UTF-8" standalone="no"?><svg xmlns="http://www.w3.org/2000/svg" xmlns:xlink="http://www.w3.org/1999/xlink" contentScriptType="application/ecmascript" contentStyleType="text/css" height="492px" preserveAspectRatio="none" style="width:246px;height:492px;" version="1.1" viewBox="0 0 246 492" width="246px" zoomAndPan="magnify"><defs><filter height="300%" id="f1bqbv1m6bg82q" width="300%" x="-1" y="-1"><feGaussianBlur result="blurOut" stdDeviation="2.0"/><feColorMatrix in="blurOut" result="blurOut2" type="matrix" values="0 0 0 0 0 0 0 0 0 0 0 0 0 0 0 0 0 0 .4 0"/><feOffset dx="4.0" dy="4.0" in="blurOut2" result="blurOut3"/><feBlend in="SourceGraphic" in2="blurOut3" mode="normal"/></filter></defs><g><text fill="#000000" font-family="sans-serif" font-size="18" lengthAdjust="spacingAndGlyphs" textLength="165" x="39.5" y="26.708">Router go forward</text><rect fill="#FEFECE" filter="url(#f1bqbv1m6bg82q)" height="33.9688" rx="12.5" ry="12.5" style="stroke: #A80036; stroke-width: 1.5;" width="120" x="50" y="30.9531"/><text fill="#000000" font-family="sans-serif" font-size="12" lengthAdjust="spacingAndGlyphs" textLength="100" x="60" y="52.0918">Msg::GoForward</text><rect fill="#FEFECE" filter="url(#f1bqbv1m6bg82q)" height="33.9688" rx="12.5" ry="12.5" style="stroke: #A80036; stroke-width: 1.5;" width="81" x="69.5" y="84.9219"/><text fill="#000000" font-family="sans-serif" font-size="12" lengthAdjust="spacingAndGlyphs" textLength="61" x="79.5" y="106.0605">fn update</text><rect fill="#FEFECE" filter="url(#f1bqbv1m6bg82q)" height="33.9688" rx="12.5" ry="12.5" style="stroke: #A80036; stroke-width: 1.5;" width="172" x="24" y="138.8906"/><text fill="#000000" font-family="sans-serif" font-size="12" lengthAdjust="spacingAndGlyphs" textLength="152" x="34" y="160.0293">request_moving_forward</text><rect fill="#FEFECE" filter="url(#f1bqbv1m6bg82q)" height="33.9688" rx="12.5" ry="12.5" style="stroke: #A80036; stroke-width: 1.5;" width="200" x="10" y="241.2617"/><text fill="#000000" font-family="sans-serif" font-size="12" lengthAdjust="spacingAndGlyphs" textLength="180" x="20" y="262.4004">router.move = move_forward</text><rect fill="#FEFECE" filter="url(#f1bqbv1m6bg82q)" height="33.9688" rx="12.5" ry="12.5" style="stroke: #A80036; stroke-width: 1.5;" width="181" x="19.5" y="295.2305"/><text fill="#000000" font-family="sans-serif" font-size="12" lengthAdjust="spacingAndGlyphs" textLength="161" x="29.5" y="316.3691">notify subs::UrlRequested</text><rect fill="#FEFECE" filter="url(#f1bqbv1m6bg82q)" height="33.9688" rx="12.5" ry="12.5" style="stroke: #A80036; stroke-width: 1.5;" width="126" x="47" y="349.1992"/><text fill="#000000" font-family="sans-serif" font-size="12" lengthAdjust="spacingAndGlyphs" textLength="106" x="57" y="370.3379">Msg::UrlChanged</text><polygon fill="#FEFECE" filter="url(#f1bqbv1m6bg82q)" points="80,192.8594,140,192.8594,152,204.8594,140,216.8594,80,216.8594,68,204.8594,80,192.8594" style="stroke: #A80036; stroke-width: 1.5;"/><text fill="#000000" font-family="sans-serif" font-size="11" lengthAdjust="spacingAndGlyphs" textLength="27" x="114" y="227.0698">exist</text><text fill="#000000" font-family="sans-serif" font-size="11" lengthAdjust="spacingAndGlyphs" textLength="60" x="80" y="208.6675">next_route</text><polygon fill="#FEFECE" filter="url(#f1bqbv1m6bg82q)" points="110,403.168,122,415.168,110,427.168,98,415.168,110,403.168" style="stroke: #A80036; stroke-width: 1.5;"/><rect fill="#FEFECE" filter="url(#f1bqbv1m6bg82q)" height="33.9688" rx="12.5" ry="12.5" style="stroke: #A80036; stroke-width: 1.5;" width="118" x="51" y="447.168"/><text fill="#000000" font-family="sans-serif" font-size="12" lengthAdjust="spacingAndGlyphs" textLength="98" x="61" y="468.3066">router_listening</text><line style="stroke: #A80036; stroke-width: 1.5;" x1="110" x2="110" y1="64.9219" y2="84.9219"/><polygon fill="#A80036" points="106,74.9219,110,84.9219,114,74.9219,110,78.9219" style="stroke: #A80036; stroke-width: 1.0;"/><line style="stroke: #A80036; stroke-width: 1.5;" x1="110" x2="110" y1="118.8906" y2="138.8906"/><polygon fill="#A80036" points="106,128.8906,110,138.8906,114,128.8906,110,132.8906" style="stroke: #A80036; stroke-width: 1.0;"/><line style="stroke: #A80036; stroke-width: 1.5;" x1="110" x2="110" y1="275.2305" y2="295.2305"/><polygon fill="#A80036" points="106,285.2305,110,295.2305,114,285.2305,110,289.2305" style="stroke: #A80036; stroke-width: 1.0;"/><line style="stroke: #A80036; stroke-width: 1.5;" x1="110" x2="110" y1="329.1992" y2="349.1992"/><polygon fill="#A80036" points="106,339.1992,110,349.1992,114,339.1992,110,343.1992" style="stroke: #A80036; stroke-width: 1.0;"/><line style="stroke: #A80036; stroke-width: 1.5;" x1="110" x2="110" y1="216.8594" y2="241.2617"/><polygon fill="#A80036" points="106,231.2617,110,241.2617,114,231.2617,110,235.2617" style="stroke: #A80036; stroke-width: 1.0;"/><line style="stroke: #A80036; stroke-width: 1.5;" x1="152" x2="220" y1="204.8594" y2="204.8594"/><polygon fill="#A80036" points="216,302.2148,220,312.2148,224,302.2148,220,306.2148" style="stroke: #A80036; stroke-width: 1.5;"/><line style="stroke: #A80036; stroke-width: 1.5;" x1="220" x2="220" y1="204.8594" y2="415.168"/><line style="stroke: #A80036; stroke-width: 1.5;" x1="220" x2="122" y1="415.168" y2="415.168"/><polygon fill="#A80036" points="132,411.168,122,415.168,132,419.168,128,415.168" style="stroke: #A80036; stroke-width: 1.0;"/><line style="stroke: #A80036; stroke-width: 1.5;" x1="110" x2="110" y1="383.168" y2="403.168"/><polygon fill="#A80036" points="106,393.168,110,403.168,114,393.168,110,397.168" style="stroke: #A80036; stroke-width: 1.0;"/><line style="stroke: #A80036; stroke-width: 1.5;" x1="110" x2="110" y1="172.8594" y2="192.8594"/><polygon fill="#A80036" points="106,182.8594,110,192.8594,114,182.8594,110,186.8594" style="stroke: #A80036; stroke-width: 1.0;"/><line style="stroke: #A80036; stroke-width: 1.5;" x1="110" x2="110" y1="427.168" y2="447.168"/><polygon fill="#A80036" points="106,437.168,110,447.168,114,437.168,110,441.168" style="stroke: #A80036; stroke-width: 1.0;"/><!--MD5=[50ee0eabc417fed811d8038f65931573]
@startuml
title Router go forward

:Msg::GoForward;

:fn update;

:request_moving_forward;

if(next_route) then (exist)
    :router.move = move_forward;
    :notify subs::UrlRequested;
    :Msg::UrlChanged;
endif
:router_listening;
@enduml

PlantUML version 1.2019.12(Sun Nov 03 10:24:54 UTC 2019)
(GPL source distribution)
Java Runtime: OpenJDK Runtime Environment
JVM: OpenJDK 64-Bit Server VM
Java Version: 1.8.0_232-heroku-b09
Operating System: Linux
Default Encoding: UTF-8
Language: en
Country: US
--></g></svg>